<svg xmlns="http://www.w3.org/2000/svg" viewBox="0 0 564.35 673.96"><defs><style>.cls-1{fill:#fff;}</style></defs><g id="Layer_2" data-name="Layer 2"><g id="Layer_1-2" data-name="Layer 1"><path class="cls-1" d="M189.83,674H.44c-1-2.19,0-4.24.61-6.23,2.09-6.71,4.27-13.41,6.65-20,3.55-9.85,6.76-19.82,10.13-29.74q11.79-34.74,23.56-69.5,12.8-37.83,25.67-75.63,8.16-24.09,16.35-48.15,13-38.15,25.9-76.31l16.5-48.6q12.85-37.81,25.68-75.63,8.22-24.31,16.5-48.61,12.84-37.68,25.6-75.4,8.29-24.42,16.58-48.83,8.13-23.83,16.19-47.69C227.58,0,227.6,0,231.48,0h100.2c3.92,0,4.31.25,5.53,3.9,6.07,18.29,12.41,36.48,18.59,54.73,6.92,20.45,13.93,40.87,20.89,61.3Q386.93,150,397.2,180.09,407.64,210.6,418,241.15q10.11,29.62,20.21,59.25l21.43,62.88q10.24,30.08,20.52,60.15,10.36,30.42,20.74,60.84,10.2,29.85,20.36,59.7,10.49,30.76,21,61.52c6.86,20.13,13.81,40.23,20.57,60.39.87,2.62,1.72,5.26,1.49,8.08H255.52a3.07,3.07,0,0,1-1.14-2.52c0-1.12,0-2.24,0-3.36-.05-7.56.53-15.15-2.08-22.5-.85-2.39-1.13-5-1.86-7.44a44.56,44.56,0,0,1-1.87-12.75c0-6.62.82-13.31-.66-19.85s-1.79-13.27-2.14-19.95a9.13,9.13,0,0,1,.7-4.22,6.22,6.22,0,0,0,.62-2.56c-.12-8.2.94-16.44-1.38-24.55a11.32,11.32,0,0,1,.82-9.06c1-1.77.95-3.89.77-5.87a31.87,31.87,0,0,1,1-10c1.19-5.25,1.65-10.58-.53-15.75a3.54,3.54,0,0,1,.43-3.41c2.18-3.55,2.67-7.49,2.8-11.51a25.21,25.21,0,0,1,.78-6.63,17.82,17.82,0,0,0,.65-6.89c-.53-5.15.64-10,2.5-14.69a11.69,11.69,0,0,0,.89-4.44,6.66,6.66,0,0,1,.92-3.66,7.76,7.76,0,0,0,1-4.15c0-2.24,0-4.48,0-6.72a11.67,11.67,0,0,1,.88-3.41c2.19-6.79,5.76-13.09,6.46-20.44a44.28,44.28,0,0,1,3.8-13.28,70,70,0,0,0,5.62-18.51,12.19,12.19,0,0,1,1.81-5.15,45.63,45.63,0,0,0,5.46-13.26,33.47,33.47,0,0,1,4.06-9.17,62.32,62.32,0,0,0,5.46-11.45c.56-1.49.82-3.65,2.89-3.66s1.9,2.24,2.44,3.63c1,2.68,1.86,5.45,2.72,8.2.95,3,3,5.45,5,7.78a5.24,5.24,0,0,0,4.5,1.85,2.44,2.44,0,0,1,2.84,2.55,25.4,25.4,0,0,0,3.23,10c1.16,2.21,1.31,4.8,2.59,6.95.91,1.52,1.51,3.76,3.83,3.34,2.16-.4,2.36-2.57,2.79-4.35.25-1,.14-2.08.35-3.09s.48-2.24,1.8-2.15,1.26,1.3,1.31,2.24c.14,2.64.09,5.28,0,7.92a15,15,0,0,0,1.2,6.27c1.39,3.24,1.8,6.79,2.57,10.22a157.66,157.66,0,0,0,5.1,18c1.05,2.95,3.29,5.08,5.63,7,1.31,1.11,2.32.75,2.84-1a23.54,23.54,0,0,0,.95-6.14,7.55,7.55,0,0,1,.27-2.37,1.24,1.24,0,0,1,1-.9,1.21,1.21,0,0,1,1.24.93,4.27,4.27,0,0,1,.23,1.42c.27,8.78,1.2,17.52,2,26.26a53.74,53.74,0,0,0,1.42,8.75c2.08,7.95,3.23,16.16,6.58,23.76.1.22.17.45.27.67.56,1.27,1.16,2.55,2.8,2.6a3.5,3.5,0,0,0,3.46-2.49c2.51-6.22,5.25-12.36,7.16-18.82,4-13.55,6.05-27.44,7.49-41.45.4-3.93-.21-7.84-.52-11.72-.53-6.72-.17-13.42-.36-20.13a94.45,94.45,0,0,0-5.81-29c-.33-.9-.68-1.79-.95-2.71s-.88-2.13.31-2.81,1.86.32,2.58,1.12c1.65,1.84,3.19,3.78,4.85,5.62.94,1,1.78,2.71,3.41,2.05,1.4-.57.9-2.27.85-3.48-.13-3.29.44-6.54.59-9.81,0-.94.07-2.16,1.33-2.21s1.29,1.2,1.5,2.11c.71,3,.86,6.17,1.35,9.24a12.4,12.4,0,0,0,.72,3c2.62,6.12,5.6,12,10.35,16.84.88.89,1.71,1.92,3.21,2.07,1.06-1.25,1-2.81,1.07-4.27a49,49,0,0,1,.57-5c.14-.88.22-1.83,1.29-2.07s1.62.57,2.12,1.28c2.7,3.86,5.27,7.83,7.68,11.87,5.44,9.1,12.17,17.22,18.83,25.4a9,9,0,0,0,3.34,2.67c1.88.8,3.12.13,3.51-1.88a12.86,12.86,0,0,0,.11-2.15c.3-11.51-.61-23-.57-34.52,0-4.68-.53-9.4-1-14.09-.27-2.81-1.73-5.3-2.68-7.92a170,170,0,0,0-12.33-26.75c-2.28-3.93-5.55-7-8.34-10.48a113.82,113.82,0,0,0-19.16-18.71c-8.35-6.48-17-12.49-27.35-15.52a52.38,52.38,0,0,0-13-1.84c-4.39-.16-8.79,0-13.18-.05a6.13,6.13,0,0,1-2.6-.3c-1.15-.55-1.25-1.38-.32-2.26a3.34,3.34,0,0,1,1.27-.65c4.84-1.65,9.63-3.44,14.91-3a30,30,0,0,0,8.35-.47c1-.19,1.94-.38,2.36-1.39.49-1.18-.29-2-1-2.73-2.83-2.93-5.78-5.75-8.6-8.7-.81-.84-1.86-1.68-1.22-3.09s1.93-1.27,3.1-1.3a65.65,65.65,0,0,1,9.82.06,20.33,20.33,0,0,1,13.07,7.27c5.51,6.33,10.51,13.07,15.95,19.46,3.57,4.2,7.69,7.9,11.6,11.79A1.22,1.22,0,0,0,412,302a.64.64,0,0,0,.44-.52c0-5.16.75-10.31-1.25-15.38-2.12-5.35-3.93-10.82-5.81-16.26a33.77,33.77,0,0,0-3.94-7.11c-3.24-5-6.43-10.14-10-14.95a58.66,58.66,0,0,0-15.14-14.49c-8-5.19-16.4-8.95-25.89-9.95-4.66-.49-9.26-.05-13.42,2.46a10.33,10.33,0,0,1-1.27.68c-.9.4-1.84.76-2.63-.16s-.33-1.63.14-2.43a3.43,3.43,0,0,0,.74-2.24c-2.65-.35-5.22.31-7.73.71a31.47,31.47,0,0,0-17.68,8.83c-3.67,3.68-7.2,7.48-10.52,11.47-.48.57-.91,1.18-1.75,1s-.93-.81-1.09-1.46a22.72,22.72,0,0,1-.62-3.29,4.4,4.4,0,0,0-1-2.87c-1.46,2-2.87,3.79-3.33,6.13a45.69,45.69,0,0,0-.95,8.81c0,1.1,0,2.29-1.22,2.91s-2.12-.24-3-.9c-2.76-2.06-5.1-4.59-7.65-6.89-4.22-3.79-8.28-7.75-12.54-11.49a8.93,8.93,0,0,0-2.08-1.61c-6-2.63-11.66-5.84-18-7.67a113.74,113.74,0,0,0-34.29-4.24,181.71,181.71,0,0,0-26.69,2.15c-4.6.78-8.92,2.5-13.27,4.07-1.89.68-3,2.23-3.92,4.21,1.89.75,3.69.26,5.44.08A42.45,42.45,0,0,1,193,235a9.16,9.16,0,0,1,1.26.7,1.74,1.74,0,0,1,1,2c-.22.94-1,1.16-1.84,1.24-2.93.25-5.89,0-8.84.17,0,.15,0,.27.06.29,5.23,2.61,8.77,7,12.38,11.42a49.88,49.88,0,0,0,19.37,14.87,29.58,29.58,0,0,1,3.62,1.88c.72.43,1.33,1,1.06,1.92s-.95,1-1.69,1.1c-1.88.25-3.81,0-5.94.29a5.3,5.3,0,0,0,2.39,2.39c6.2,4.39,12.11,9.16,18.07,13.86.79.62,1.89,1.18,1.61,2.43s-1.57,1.16-2.52,1.46c-1.68.53-3.48.13-5.51.55,1.58,1.62,3.37,2.35,4.86,3.47.73.55,1.5,1.05,1.28,2.09-.25,1.21-1.3,1.35-2.26,1.34-5.52-.11-11,.8-16.51.56a14.8,14.8,0,0,0-5.19.73c-9.85,3.15-19.17,7.55-28.45,12-3.06,1.48-4.42,4.7-7.23,7.07,1.82.63,3.12.18,4.4.07,1.11-.09,2.41-.34,2.89,1s-.7,1.84-1.52,2.43c-3.69,2.67-7.49,5.18-11.2,7.83a14.77,14.77,0,0,0-3.38,3.36c-1.15,1.57-.91,2.35.74,3.22,1.21.62,3.12.47,3.25,2.36.14,2.06-1.81,2.58-3.13,3.2-4.39,2.08-7.19,5.39-9.44,9.69-3.76,7.19-6.82,14.45-6.38,22.77a3.28,3.28,0,0,0,.32,1.93c1.62-1.9,2.93-4,4.53-5.86,6.81-7.84,15.23-12.43,25.74-12.8a23,23,0,0,0,3.11-.15,1.88,1.88,0,0,1,2.13.69c.53.81.15,1.52-.36,2.19a2.61,2.61,0,0,0-.73,1.95,37.74,37.74,0,0,0,8.63-.09c5.27-.88,10.51-1.9,15.86-2.35,2.86-.24,5-2.4,7.52-3.58,1.3-.61,2.62-2.25,4.06-.87s-.3,2.59-.84,3.82a2.6,2.6,0,0,0-.41,1.91c1.81-.18,3.48-1.12,5.32-1.32a51.66,51.66,0,0,1,10.76-.16c4.56.47,9.1.28,13.65.31a19.36,19.36,0,0,0,8.69-2.45,15.27,15.27,0,0,1,4-1.59c1.57-.27,2.49.62,2.23,2.19a6.82,6.82,0,0,1-1.83,3.57c-2.24,2.4-4.22,5-6.37,7.48A16.58,16.58,0,0,0,252.45,380a9.62,9.62,0,0,1-2.07,5.72c-2.36,3-4.73,6-7,9.14-2.62,3.58-4.34,7.44-3.95,12a9.77,9.77,0,0,1-1.72,6.31c-3.53,5.52-6.58,11.34-10,16.93a12.91,12.91,0,0,0-1.27,2.84c-.37,1.19-.31,2.23.91,2.9,1.87,1,1.61,2.36.59,3.79-4.91,6.83-7.59,14.74-10.79,22.4-.89,2.12-1.43,4,.76,5.81,1,.82.58,2.06.07,3.11-1.41,3-3.23,5.71-4.6,8.68a54.36,54.36,0,0,0-5.14,18.31c-.32,3.91-.46,7.81-.55,11.73a14,14,0,0,1-2.11,6.81c-4.13,6.89-5.19,14.5-5.52,22.33a60.94,60.94,0,0,0,0,7.88,17.92,17.92,0,0,1-1.45,9.12c-1.48,3.25-1.79,6.74-1.94,10.29-.17,4.31-.51,8.61-.42,12.93a8,8,0,0,0,.88,4.16,3.7,3.7,0,0,1,.19,3.7c-2,3.41-1.79,7.25-2.43,10.91a29.35,29.35,0,0,1-.76,4.24c-2.28,6.69-1.66,13.59-1.69,20.45a5.65,5.65,0,0,0,2.31,4.78,5.18,5.18,0,0,1,2,4.37,21.91,21.91,0,0,1-2.67,12c-1.88,3.28-2.29,6.9-2.66,10.6-.56,5.5-.37,11-.45,16.52C191,672,190.93,673.14,189.83,674Z"/></g></g></svg>